{
  "accessors": [
    {
      "bufferView": 2,
      "componentType": 5126,
      "count": 276,
      "max": [
        6.510571479797363,
        5.865081310272217,
        7.637969970703125
      ],
      "min": [
        -6.725557804107666,
        -7.063022613525391,
        -7.671167850494385
      ],
      "type": "VEC3"
    },
    {
      "bufferView": 2,
      "byteOffset": 3312,
      "componentType": 5126,
      "count": 276,
      "max": [
        0.983215868473053,
        0.9584474563598633,
        0.9726110696792603
      ],
      "min": [
        -0.9875220060348511,
        -0.9744219183921814,
        -0.9937053322792053
      ],
      "type": "VEC3"
    },
    {
      "bufferView": 1,
      "componentType": 5126,
      "count": 276,
      "max": [
        0.999500036239624,
        0.993812620639801
      ],
      "min": [
        0.0005000000237487257,
        0.0005000000237487257
      ],
      "type": "VEC2"
    },
    {
      "bufferView": 0,
      "componentType": 5125,
      "count": 420,
      "type": "SCALAR"
    }
  ],
  "asset": {
    "extras": {
      "author": "pronko.tata (https://sketchfab.com/pronko.tateb0776e64de54e50)",
      "license": "CC-BY-4.0 (http://creativecommons.org/licenses/by/4.0/)",
      "source": "https://sketchfab.com/3d-models/rystal-e2d25ff17fcb43d889f96325dba701ef",
      "title": "Сrystal"
    },
    "generator": "Sketchfab-12.68.0",
    "version": "2.0"
  },
  "bufferViews": [
    {
      "buffer": 0,
      "byteLength": 1680,
      "name": "floatBufferViews",
      "target": 34963
    },
    {
      "buffer": 0,
      "byteLength": 2208,
      "byteOffset": 1680,
      "byteStride": 8,
      "name": "floatBufferViews",
      "target": 34962
    },
    {
      "buffer": 0,
      "byteLength": 6624,
      "byteOffset": 3888,
      "byteStride": 12,
      "name": "floatBufferViews",
      "target": 34962
    }
  ],
  "buffers": [
    {
      "byteLength": 10512,
      "uri": "scene.bin"
    }
  ],
  "extensionsUsed": [
    "KHR_materials_clearcoat"
  ],
  "images": [
    {
      "uri": "textures/Scene_-_Root_baseColor.png"
    },
    {
      "uri": "textures/Scene_-_Root_metallicRoughness.png"
    },
    {
      "uri": "textures/Scene_-_Root_emissive.png"
    }
  ],
  "materials": [
    {
      "doubleSided": true,
      "emissiveFactor": [
        0.931783536585366,
        0.931783536585366,
        0.931783536585366
      ],
      "emissiveTexture": {
        "index": 2
      },
      "extensions": {
        "KHR_materials_clearcoat": {
          "clearcoatFactor": 0.3797637195121951,
          "clearcoatRoughnessFactor": 0.050495426829268296
        }
      },
      "name": "Scene_-_Root",
      "pbrMetallicRoughness": {
        "baseColorTexture": {
          "index": 0
        },
        "metallicFactor": 0.09927591463414634,
        "metallicRoughnessTexture": {
          "index": 1
        }
      }
    }
  ],
  "meshes": [
    {
      "name": "SM_kristal__0",
      "primitives": [
        {
          "attributes": {
            "NORMAL": 1,
            "POSITION": 0,
            "TEXCOORD_0": 2
          },
          "indices": 3,
          "material": 0,
          "mode": 4
        }
      ]
    }
  ],
  "nodes": [
    {
      "children": [
        1
      ],
      "matrix": [
        1.0,
        -2.8327693431939995e-16,
        2.8327693431939985e-16,
        0.0,
        -2.832769343193999e-16,
        -3.828568672208042e-16,
        1.0,
        0.0,
        -2.832769343193999e-16,
        -1.0,
        -3.828568672208042e-16,
        0.0,
        -1.6653345369377348e-16,
        -0.040650539100170385,
        1.1346604824066162,
        1.0
      ],
      "name": "Sketchfab_model"
    },
    {
      "children": [
        2
      ],
      "matrix": [
        1.0,
        0.0,
        0.0,
        0.0,
        0.0,
        0.0,
        1.0,
        0.0,
        0.0,
        -1.0,
        0.0,
        0.0,
        0.0,
        0.0,
        0.0,
        1.0
      ],
      "name": "e58e34dcaa0240b6a1a2b9514f7a1e17.fbx"
    },
    {
      "children": [
        3
      ],
      "name": "RootNode"
    },
    {
      "children": [
        4
      ],
      "matrix": [
        1.0,
        0.0,
        0.0,
        0.0,
        0.0,
        2.1031440298053113e-16,
        -0.9471718668937683,
        0.0,
        0.0,
        1.2245839834213257,
        2.7191226679630935e-16,
        0.0,
        0.0,
        0.0,
        0.0,
        1.0
      ],
      "name": "SM_kristal"
    },
    {
      "mesh": 0,
      "name": "SM_kristal__0"
    }
  ],
  "samplers": [
    {
      "magFilter": 9729,
      "minFilter": 9987,
      "wrapS": 10497,
      "wrapT": 10497
    }
  ],
  "scene": 0,
  "scenes": [
    {
      "name": "Sketchfab_Scene",
      "nodes": [
        0
      ]
    }
  ],
  "textures": [
    {
      "sampler": 0,
      "source": 0
    },
    {
      "sampler": 0,
      "source": 1
    },
    {
      "sampler": 0,
      "source": 2
    }
  ]
}
