<?xml version="1.0" encoding="UTF-8" standalone="no"?>
<!-- Created with Inkscape (http://www.inkscape.org/) -->

<svg
   version="1.1"
   id="svg1976"
   width="880"
   height="880"
   viewBox="0 0 880 880"
   sodipodi:docname="jewelry-stone-cartoon-pdv.svg"
   inkscape:version="1.2 (dc2aedaf03, 2022-05-15)"
   xmlns:inkscape="http://www.inkscape.org/namespaces/inkscape"
   xmlns:sodipodi="http://sodipodi.sourceforge.net/DTD/sodipodi-0.dtd"
   xmlns="http://www.w3.org/2000/svg"
   xmlns:svg="http://www.w3.org/2000/svg">
  <defs
     id="defs1980">
    <clipPath
       clipPathUnits="userSpaceOnUse"
       id="clipPath1994">
      <path
         d="M 0,660 H 660 V 0 H 0 Z"
         id="path1992" />
    </clipPath>
  </defs>
  <sodipodi:namedview
     id="namedview1978"
     pagecolor="#ffffff"
     bordercolor="#000000"
     borderopacity="0.25"
     inkscape:showpageshadow="2"
     inkscape:pageopacity="0.0"
     inkscape:pagecheckerboard="0"
     inkscape:deskcolor="#d1d1d1"
     showgrid="false"
     inkscape:zoom="0.95113636"
     inkscape:cx="441.05137"
     inkscape:cy="440.52569"
     inkscape:window-width="1920"
     inkscape:window-height="1017"
     inkscape:window-x="-8"
     inkscape:window-y="-8"
     inkscape:window-maximized="1"
     inkscape:current-layer="g1984">
    <inkscape:page
       x="0"
       y="0"
       id="page1982"
       width="880"
       height="880" />
  </sodipodi:namedview>
  <g
     id="g1984"
     inkscape:groupmode="layer"
     inkscape:label="Page 1"
     transform="matrix(1.3333333,0,0,-1.3333333,0,880)">
    <path
       d="M 0,0 H 659.401 V 658.368 H 0 Z"
       style="fill:#1a1a1a;fill-opacity:1;fill-rule:nonzero;stroke:none"
       id="path1986" />
    <g
       id="g1988">
      <g
         id="g1990"
         clip-path="url(#clipPath1994)">
        <g
           id="g1996"
           transform="translate(329.7007,33.2256)">
          <path
             d="M 0,0 C 162.723,0 295.44,132.718 295.44,295.441 295.44,458.165 162.723,590.883 0,590.883 -162.725,590.883 -295.442,458.165 -295.442,295.441 -295.442,132.718 -162.725,0 0,0"
             style="fill:#1a1a1a;fill-opacity:1;fill-rule:evenodd;stroke:none"
             id="path1998" />
        </g>
        <g
           id="g2000"
           transform="translate(329.6992,588.106)">
          <path
             d="m 0,0 c 143.286,0 259.441,-116.154 259.441,-259.439 0,-143.285 -116.155,-259.439 -259.441,-259.439 -143.285,0 -259.439,116.154 -259.439,259.439 C -259.439,-116.154 -143.285,0 0,0"
             style="fill:#253236;fill-opacity:1;fill-rule:evenodd;stroke:none"
             id="path2002" />
        </g>
        <g
           id="g2004"
           transform="translate(329.6992,552.1045)">
          <path
             d="m 0,0 c 123.401,0 223.439,-100.036 223.439,-223.437 0,-123.402 -100.038,-223.439 -223.439,-223.439 -123.4,0 -223.435,100.037 -223.435,223.439 C -223.435,-100.036 -123.4,0 0,0"
             style="fill:#304a53;fill-opacity:1;fill-rule:evenodd;stroke:none"
             id="path2006" />
        </g>
        <g
           id="g2008"
           transform="translate(329.7007,141.2324)">
          <path
             d="m 0,0 c 103.236,0 187.436,84.198 187.436,187.435 0,103.236 -84.2,187.436 -187.436,187.436 -103.237,0 -187.436,-84.2 -187.436,-187.436 C -187.436,84.198 -103.237,0 0,0"
             style="fill:#3b626f;fill-opacity:1;fill-rule:evenodd;stroke:none"
             id="path2010" />
        </g>
        <g
           id="g2012"
           transform="translate(171.7407,419.8652)">
          <path
             d="M 0,0 67.374,65.699 157.958,91.198 248.544,65.699 315.92,0 l 23.209,-91.198 -23.209,-91.199 -67.376,-65.7 -90.586,-25.497 -90.584,25.497 -67.374,65.7 -23.21,91.199 z"
             style="fill:#2da3ca;fill-opacity:1;fill-rule:evenodd;stroke:none"
             id="path2014" />
        </g>
        <g
           id="g2016"
           transform="translate(148.5303,328.667)">
          <path
             d="m 0,0 45.293,78.449 45.291,78.449 h 90.585 90.586 L 317.047,78.449 362.34,0 317.047,-78.449 271.755,-156.898 H 181.169 90.584 l -45.291,78.449 z"
             style="fill:#4abfe6;fill-opacity:1;fill-rule:evenodd;stroke:none"
             id="path2018" />
        </g>
        <g
           id="g2020"
           transform="translate(456.1855,233.9492)">
          <path
             d="m 0,0 -103.942,-62.181 c -13.099,11.633 -21.357,28.601 -21.357,47.498 0,35.072 28.432,63.503 63.504,63.503 C -31.777,48.82 -6.628,27.992 0,0"
             style="fill:#71d6f7;fill-opacity:1;fill-rule:evenodd;stroke:none"
             id="path2022" />
        </g>
        <g
           id="g2024"
           transform="translate(198.5938,328.667)">
          <path
             d="m 0,0 32.777,56.771 32.776,56.771 h 65.552 65.555 l 18.755,-32.485 c -1.474,0.033 -2.951,0.056 -4.433,0.056 -84.794,0 -156.788,-54.606 -182.498,-130.45 z"
             style="fill:#32afd9;fill-opacity:1;fill-rule:evenodd;stroke:none"
             id="path2026" />
        </g>
        <g
           id="g2028"
           transform="translate(329.6992,146.2715)">
          <path
             d="m 0,0 -74.763,52.903 9.21,15.949 H 65.555 l 9.209,-15.949 z m 0,364.792 74.765,-52.905 -9.21,-15.95 H -65.553 l -9.209,15.95 z"
             style="fill:#6cd3f5;fill-opacity:1;fill-rule:evenodd;stroke:none"
             id="path2030" />
        </g>
        <g
           id="g2032"
           transform="translate(365.7334,171.7686)">
          <path
             d="m 0,0 h -36.034 -36.032 l -38.731,27.406 9.21,15.949 H 29.52 L 38.729,27.406 Z M 0,313.796 38.73,286.39 29.52,270.44 h -131.107 l -9.209,15.95 38.73,27.406 h 36.032 z"
             style="fill:#5ccdf2;fill-opacity:1;fill-rule:evenodd;stroke:none"
             id="path2034" />
        </g>
        <g
           id="g2036"
           transform="translate(487.6611,237.4678)">
          <path
             d="m 0,0 -83.2,-38.294 -9.207,15.95 65.552,113.543 18.418,0.001 z m -315.92,182.397 83.198,38.294 9.207,-15.95 -65.552,-113.542 -18.418,-0.001 z"
             style="fill:#7fdbfa;fill-opacity:1;fill-rule:evenodd;stroke:none"
             id="path2038" />
        </g>
        <g
           id="g2040"
           transform="translate(483.5947,281.4238)">
          <path
             d="m 0,0 -18.018,-31.206 -18.016,-31.206 -43.1,-19.838 -9.207,15.95 65.553,113.543 H -4.37 Z m -271.755,156.898 43.099,19.837 9.208,-15.95 -65.553,-113.542 -18.418,-0.001 -4.37,47.243 18.017,31.207 z"
             style="fill:#71d6f7;fill-opacity:1;fill-rule:evenodd;stroke:none"
             id="path2042" />
        </g>
        <g
           id="g2044"
           transform="translate(487.6611,419.8652)">
          <path
             d="m 0,0 -8.437,-91.199 -18.418,0.001 -65.552,113.541 9.207,15.951 z m -315.92,-182.397 8.435,91.2 18.418,-10e-4 65.552,-113.543 -9.207,-15.949 z"
             style="fill:#96e1fa;fill-opacity:1;fill-rule:evenodd;stroke:none"
             id="path2046" />
        </g>
        <g
           id="g2048"
           transform="translate(447.5605,438.3218)">
          <path
             d="m 0,0 18.017,-31.206 18.017,-31.207 -4.37,-47.243 -18.418,0.001 -65.553,113.542 9.207,15.95 z m -271.755,-156.898 4.37,47.244 18.418,-0.001 65.553,-113.543 -9.207,-15.949 -43.1,19.837 -18.017,31.206 z"
             style="fill:#89daf5;fill-opacity:1;fill-rule:evenodd;stroke:none"
             id="path2050" />
        </g>
        <g
           id="g2052"
           transform="translate(254.9375,458.1582)">
          <path
             d="m 0,0 10.028,-11.45 130.288,-4.5 H 9.209 Z m -56.344,-129.491 67.408,-109.401 h 128.389 l 68.681,109.401 -66.32,-116.137 H 7.292 Z"
             style="fill:#e3f8ff;fill-opacity:1;fill-rule:evenodd;stroke:none"
             id="path2054" />
        </g>
        <g
           id="g2056"
           transform="translate(244.376,461.2036)">
          <path
             d="M 0,0 1.602,-25.78 27.383,-27.383 1.602,-28.986 0,-54.766 l -1.604,25.78 -25.779,1.603 25.779,1.603 z"
             style="fill:#f0fbff;fill-opacity:1;fill-rule:evenodd;stroke:none"
             id="path2058" />
        </g>
        <g
           id="g2060"
           transform="translate(214.1616,293.9873)">
          <path
             d="M 0,0 2.04,-32.815 34.856,-34.856 2.04,-36.896 0,-69.711 l -2.04,32.815 -32.815,2.04 32.815,2.041 z"
             style="fill:#f0fbff;fill-opacity:1;fill-rule:evenodd;stroke:none"
             id="path2062" />
        </g>
        <g
           id="g2064"
           transform="translate(432.7021,413.6948)">
          <path
             d="M 0,0 2.04,-32.815 34.855,-34.856 2.04,-36.896 0,-69.711 l -2.041,32.815 -32.813,2.04 32.813,2.041 z"
             style="fill:#f0fbff;fill-opacity:1;fill-rule:evenodd;stroke:none"
             id="path2066" />
        </g>
        <g
           id="g2068"
           transform="translate(416.2988,224.0937)">
          <path
             d="M 0,0 1.051,-16.888 17.938,-17.937 1.051,-18.988 0,-35.875 l -1.05,16.887 -16.886,1.051 16.886,1.049 z"
             style="fill:#f0fbff;fill-opacity:1;fill-rule:evenodd;stroke:none"
             id="path2070" />
        </g>
        <g
           id="g2072"
           transform="translate(369.5605,501.1011)">
          <path
             d="M 0,0 1.05,-16.888 17.939,-17.938 1.05,-18.988 0,-35.876 l -1.05,16.888 -16.886,1.05 16.886,1.05 z"
             style="fill:#f0fbff;fill-opacity:1;fill-rule:evenodd;stroke:none"
             id="path2074" />
        </g>
        <g
           id="g2076"
           transform="translate(280.959,418.001)">
          <path
             d="M 0,0 3.195,-51.393 54.588,-54.587 3.195,-57.783 0,-109.174 l -3.195,51.391 -51.392,3.196 51.392,3.194 z"
             style="fill:#f0fbff;fill-opacity:1;fill-rule:evenodd;stroke:none"
             id="path2078" />
        </g>
      </g>
    </g>
  </g>
</svg>
